<svg width="64" height="64" viewBox="0 0 64 64" fill="none" xmlns="http://www.w3.org/2000/svg">
<path d="M29.4566 0.0681715C24.6702 0.41065 19.7343 1.98158 15.5089 4.49061C11.3807 6.95496 7.67124 10.4914 5.06867 14.4672C4.16375 15.8371 2.87742 18.3238 2.27164 19.8649C1.54621 21.6964 0.903049 23.9598 0.521637 26.0221C-0.173879 29.7447 -0.173879 34.2043 0.521637 37.9195C1.71074 44.2851 4.78448 50.0328 9.52595 54.7456C11.6798 56.8898 13.7215 58.4459 16.3315 59.9349C20.3625 62.2355 24.76 63.5533 29.7183 63.9479C31.072 64.0521 34.2504 63.9925 35.5517 63.8362C39.306 63.382 42.3947 62.5109 45.6404 61.007C47.8691 59.9721 50.711 58.0885 52.8723 56.2272C54.024 55.237 55.9909 53.1821 57.008 51.909C58.5112 50.0328 59.5807 48.3874 60.6052 46.3623C62.5198 42.5876 63.664 38.53 63.9407 34.5021C64.0604 32.6632 63.9931 29.4245 63.7911 27.9355C63.0881 22.7611 61.383 18.1451 58.6757 14.0949C56.3723 10.6478 53.149 7.49846 49.5518 5.16812C44.1223 1.65399 38.2216 -0.0509515 31.6254 0.00116484C30.8626 0.00116484 29.8904 0.0309456 29.4566 0.0681715ZM31.4758 7.2081V12.9409H27.1756C24.5207 12.9409 22.8754 12.9111 22.8754 12.8664C22.8754 12.7548 23.8401 11.9879 24.3861 11.6678C24.6553 11.5114 25.0816 11.3327 25.3209 11.2806C25.9042 11.1392 26.1062 11.0275 26.7269 10.4765C27.3401 9.94048 27.6019 9.57567 27.7814 9.04706C27.9609 8.48867 28.1179 8.30999 28.7012 7.96006C29.0827 7.73671 29.2397 7.59525 29.2995 7.42401C29.3743 7.21554 29.3594 7.17832 29.135 6.9773C28.8583 6.72416 27.8188 6.07643 27.385 5.8903C26.9737 5.71906 25.6425 5.71906 24.8198 5.90519C24.1916 6.04665 22.8679 6.10621 22.7557 6.00198C22.6211 5.86797 25.1788 3.07603 26.1884 2.2645C26.5025 2.01136 26.6297 1.95925 27.3102 1.84013C28.0282 1.71356 29.5239 1.5721 30.6906 1.52743C30.9822 1.51254 31.2739 1.49765 31.3487 1.4902C31.4684 1.47531 31.4758 1.79545 31.4758 7.2081ZM36.0752 1.77312C37.4363 1.96669 37.4064 1.9518 38.8423 3.37383C40.2932 4.81075 41.1831 5.87541 42.2376 7.44635C42.7237 8.16853 43.8904 10.0745 43.8904 10.1415C43.8904 10.1564 43.7334 10.2085 43.5389 10.2532C43.0977 10.35 38.7451 10.35 38.5656 10.2532C38.3861 10.1564 38.3936 10.0819 38.618 9.75435C38.7227 9.60545 38.8049 9.38954 38.8049 9.27786C38.8049 9.0694 38.5133 8.6748 38.259 8.53334C38.1169 8.45889 37.3466 8.39188 36.6137 8.38444C35.9481 8.38444 35.1479 9.02472 34.4823 10.0819C34.3028 10.3649 33.9214 10.8488 33.6297 11.154C33.3305 11.4593 32.9641 11.9135 32.807 12.1517L32.5228 12.591V7.0592V1.52743L33.7419 1.5721C34.4075 1.59443 35.462 1.68378 36.0752 1.77312ZM24.3711 2.33895C24.3711 2.36129 24.042 2.74099 23.6382 3.17281C22.9427 3.92477 21.7685 5.3468 21.619 5.61483C21.5591 5.71906 21.417 5.73395 20.6168 5.72651C19.4801 5.71162 19.1809 5.77118 18.1638 6.24023C17.4683 6.56781 17.3038 6.61249 16.8775 6.61249C16.2642 6.61249 15.7856 6.84329 14.8358 7.5878C13.7888 8.40677 13.6018 8.50356 13.1157 8.43656C12.8913 8.41422 12.6894 8.3621 12.667 8.33232C12.6221 8.25787 14.2525 7.05175 15.3593 6.33701C17.7076 4.83309 20.041 3.7312 22.9875 2.73355C24.3487 2.27939 24.3711 2.27195 24.3711 2.33895ZM40.7494 2.68888C42.8958 3.36639 45.8274 4.67674 47.7045 5.80841C50.0379 7.2081 53.1041 9.59056 52.5731 9.59056C52.3563 9.59056 51.0026 9.19596 50.5763 9.00983C49.6191 8.58546 48.9086 8.45145 47.9364 8.49612C47.2932 8.5259 46.9641 8.57057 46.6725 8.68969C46.1565 8.89816 45.4086 9.27042 45.1468 9.4491C45.0421 9.531 44.915 9.59056 44.8701 9.59056C44.8327 9.59056 44.6757 9.35231 44.5336 9.0694C43.6885 7.39423 41.7889 4.80331 40.1885 3.12814C39.2761 2.17516 39.2312 2.20494 40.7494 2.68888ZM17.7525 8.32488C18.089 8.49612 18.2984 8.54823 18.62 8.54823C19.1211 8.54823 19.51 8.66736 19.51 8.8237C19.51 8.88327 19.4501 9.02472 19.3679 9.12896C19.1884 9.39698 18.3732 11.2211 18.0516 12.0847C18.0068 12.2113 17.9843 12.1964 17.8946 11.9507C17.8422 11.7943 17.7076 11.5635 17.6104 11.4444C17.5057 11.3178 17.386 11.0796 17.3412 10.9084C17.1766 10.2904 17.1542 10.2383 16.9672 10.0968C16.8401 10.0075 16.5933 9.94048 16.2343 9.9107C15.9352 9.88837 15.6734 9.83625 15.651 9.80647C15.6285 9.76924 15.6884 9.68735 15.7781 9.61289C16.2792 9.21085 16.6232 8.86093 16.7503 8.61524C16.9074 8.2951 17.0869 8.10152 17.214 8.10152C17.2664 8.10152 17.5057 8.20575 17.7525 8.32488ZM12.2033 9.598C12.5249 9.68735 12.5548 9.82136 12.3005 10.0745C11.9416 10.4319 10.8048 10.5808 10.7076 10.283C10.6627 10.1638 11.5601 9.51611 11.7621 9.51611C11.8443 9.51611 12.0463 9.55333 12.2033 9.598ZM14.6488 9.62778C14.8433 9.85859 14.6713 10.0968 14.1328 10.3649C13.8561 10.5063 13.5196 10.7148 13.3924 10.819C13.1157 11.0498 13.1082 11.0424 13.0484 10.3202C12.9961 9.75435 12.9961 9.74691 13.6018 9.62034C14.1777 9.49377 14.5367 9.49377 14.6488 9.62778ZM20.1382 10.6254C20.1606 10.6627 20.1157 11.087 20.0335 11.571C19.9512 12.0624 19.8839 12.5463 19.8839 12.6505C19.8839 12.8888 19.7717 12.9409 19.2781 12.9409C18.979 12.9409 18.9117 12.9186 18.9117 12.8069C18.9117 12.6505 19.9587 10.5584 20.041 10.5584C20.0709 10.5584 20.1157 10.5882 20.1382 10.6254ZM36.8455 11.6454C36.8605 11.7348 36.8231 11.8539 36.7707 11.906C36.7184 11.9656 36.5464 12.1666 36.3893 12.3676C36.0677 12.7548 35.7387 12.9632 35.4844 12.926C35.3348 12.9037 35.3199 12.8813 35.3797 12.6654C35.447 12.4048 36.1276 11.6231 36.3669 11.5189C36.6212 11.4221 36.8231 11.4742 36.8455 11.6454ZM15.6211 12.0102C15.6211 12.2262 15.5538 12.3378 15.2172 12.6729C14.9555 12.926 14.7984 13.1494 14.7835 13.2908C14.7087 13.8418 15.3668 14.3034 16.2567 14.3108C16.5484 14.3183 16.87 14.2959 16.9897 14.2587C17.2514 14.1842 17.2514 14.2661 16.9448 14.8766C16.7279 15.3159 16.6756 15.368 16.4362 15.4052C16.2941 15.4276 16.0922 15.502 15.995 15.569C15.7332 15.7552 15.636 15.7254 15.5837 15.4499C15.4939 15.0255 15.2396 14.7426 14.8508 14.6086C13.9533 14.3108 13.355 14.8171 13.0409 16.1423C12.9661 16.4476 12.8091 16.8943 12.6819 17.1325C12.4501 17.5718 11.964 18.0781 11.777 18.0781C11.7172 18.0781 11.5975 17.9366 11.5153 17.7579C11.4255 17.5792 11.1713 17.274 10.9394 17.073C10.4309 16.6411 10.0868 16.1274 10.0868 15.8147C10.0943 14.9585 11.1787 13.9758 13.0858 13.1047C13.4971 12.9111 13.8935 12.658 14.2076 12.3825C14.7386 11.906 15.0153 11.7571 15.3817 11.7497C15.6061 11.7497 15.6211 11.7646 15.6211 12.0102ZM36.1799 13.9385C36.4118 13.9981 36.9203 14.0726 37.3092 14.0949C37.6981 14.1247 38.0346 14.1619 38.0571 14.1768C38.1468 14.2736 37.7803 14.4225 37.3316 14.4746C36.6436 14.5416 36.4716 14.7054 36.4417 15.301C36.4192 15.8668 36.2397 16.254 35.8957 16.4774C35.6714 16.6188 35.4919 16.656 34.7889 16.6858C33.8466 16.7305 33.8391 16.7305 33.5848 16.1349C33.5025 15.9413 33.3978 15.7626 33.353 15.7328C33.1137 15.5914 32.822 15.9339 32.822 16.3657C32.822 16.4848 32.7622 16.6337 32.6949 16.7082C32.5677 16.8347 32.5602 16.7826 32.5378 15.6584C32.5303 15.0107 32.5303 14.4672 32.5528 14.4523C32.5677 14.4299 32.7248 14.4001 32.8968 14.3778C33.3006 14.3183 33.51 14.5193 33.7194 15.1447C33.9737 15.9041 34.2729 16.1274 34.6468 15.8371C34.9908 15.569 35.2451 14.9809 35.2526 14.4299C35.26 14.1619 35.2675 13.9237 35.275 13.8864C35.2974 13.8045 35.7162 13.8269 36.1799 13.9385ZM20.0559 14.1693C20.3551 14.7873 20.9907 14.8245 21.604 14.2512L21.9704 13.9088H26.7269H31.4758V15.9264C31.4758 18.2791 31.4833 18.2568 30.7953 18.7109C30.1671 19.1278 29.5314 19.7979 29.5314 20.051C29.5314 20.1702 29.6361 20.3712 29.7931 20.5573C30.0624 20.8626 30.1147 21.1008 29.9801 21.3614C29.838 21.6145 29.5015 21.7262 28.8508 21.7262C28.0656 21.7262 27.8861 21.8528 27.8861 22.4112C27.8861 22.6122 27.8113 23.0217 27.7215 23.3344L27.557 23.8928L27.6991 24.1608C27.9085 24.5405 28.2974 24.7192 28.8957 24.7192C29.6211 24.7192 29.8156 24.5703 30.2792 23.6322C30.541 23.0887 30.7504 22.7685 30.9897 22.5526C31.1692 22.3888 31.3562 22.2474 31.401 22.2474C31.4459 22.2474 31.4758 22.6345 31.4758 23.3195V24.3841L31.1393 24.4363C30.9224 24.4586 30.6906 24.5628 30.5111 24.7117C30.2792 24.8904 30.0923 24.9574 29.5613 25.0542C28.3497 25.2552 27.9309 25.6126 27.4299 26.8411C27.198 27.4143 27.0335 27.6898 26.6521 28.1291C25.8594 29.0448 25.5677 29.7521 25.5677 30.7796C25.5677 31.0625 25.5378 31.1741 25.4555 31.2114C25.2685 31.2784 15.4416 31.256 15.3294 31.189C15.105 31.0476 15.3817 26.7219 15.8155 23.6247C16.0025 22.2548 16.3091 20.7583 16.4138 20.6541C16.4662 20.5945 16.6382 20.5275 16.7952 20.5052C17.2365 20.4307 17.6104 20.2372 17.7226 20.0436C17.8572 19.7905 17.6328 18.4131 17.3711 17.877L17.1841 17.4899L17.76 15.7031L18.3433 13.9088H19.136H19.9288L20.0559 14.1693ZM15.2172 21.2199C15.0452 22.0091 14.7461 23.8332 14.5815 25.1882C14.4544 26.171 14.2824 28.4492 14.23 29.8415C14.2001 30.6753 14.1552 31.1667 14.0954 31.1965C13.9907 31.2635 8.04517 31.2784 7.41697 31.2114L6.96077 31.1593L7.06547 30.9136C7.22252 30.5339 7.20008 30.0127 7.02808 29.9159C6.79624 29.7968 6.55692 29.9382 6.07829 30.4743C5.50243 31.122 5.21076 31.1965 4.70221 30.8466C4.55264 30.7423 4.38811 30.5711 4.33576 30.4669C4.18618 30.1318 4.23853 29.4766 4.48533 28.747C4.86674 27.6079 5.3005 27.2505 6.59431 27.0123C7.32722 26.8783 7.75351 26.9453 8.00778 27.2282C8.11996 27.3473 8.2471 27.593 8.29197 27.7717C8.50137 28.5311 8.54624 28.613 8.77808 28.6353C9.18941 28.6651 9.21932 28.5907 9.27168 27.5558C9.29411 27.0346 9.35394 26.5135 9.39881 26.4018C9.44368 26.2827 9.72787 25.9327 10.027 25.6126C10.3262 25.2925 10.9918 24.5182 11.5078 23.8853C12.0163 23.2525 12.5174 22.6643 12.6221 22.5824C12.7193 22.5005 13.0409 22.3144 13.3326 22.1729C13.8935 21.8974 13.9758 21.8007 14.2375 21.0487C14.3422 20.736 14.402 20.6764 14.8582 20.4382C15.2322 20.2372 15.3668 20.1999 15.3817 20.2744C15.3967 20.334 15.3219 20.7583 15.2172 21.2199ZM39.7398 20.535C40.009 20.7137 40.2633 20.7211 40.6297 20.5722C40.869 20.4754 40.9289 20.468 41.1084 20.5648C41.3925 20.7137 41.9086 21.3093 42.1628 21.7858C42.2376 21.9272 42.2376 21.9942 42.1329 22.1506C42.0133 22.3293 41.9834 22.3367 41.5421 22.292C40.4203 22.158 40.2333 22.158 39.8295 22.2772C38.9545 22.5303 38.5806 22.3739 38.5806 21.7634C38.5806 21.3986 38.8797 20.6318 39.0816 20.4754C39.2611 20.3489 39.478 20.3637 39.7398 20.535ZM34.4972 20.9072C34.7291 20.9891 35.7237 21.89 35.9182 22.1878C35.9929 22.3069 36.1874 22.7685 36.3444 23.2227C36.7857 24.4586 36.8754 24.5926 37.2194 24.5033C37.4962 24.4363 37.5485 24.1906 37.4288 23.662C37.2793 23.0291 37.2793 22.9472 37.4588 22.7685C37.6532 22.575 37.9449 22.5824 38.1393 22.776C38.2814 22.9174 38.2964 22.9919 38.2515 23.3939C38.2141 23.7736 38.2291 23.8928 38.3562 24.0938C38.5731 24.4511 38.8947 24.5554 39.7622 24.5554C40.4577 24.5554 40.5101 24.5628 40.6821 24.749C40.9438 25.0244 40.9363 25.6349 40.6596 26.2157C40.368 26.8262 40.3904 26.8262 38.7301 26.5581C38.4609 26.5209 37.9299 26.3794 37.5485 26.2529C36.6735 25.9551 36.5015 25.9923 36.337 26.5135C36.2248 26.8559 36.2173 26.8634 35.9107 26.8634C35.6714 26.8634 35.3647 26.7443 34.6243 26.372L33.6446 25.8732L33.6372 25.4935C33.6297 25.285 33.6297 25.084 33.6372 25.0468C33.6671 24.9053 33.5549 24.5479 33.4427 24.4437C33.3754 24.3693 33.1884 24.332 32.9267 24.332H32.5228V22.9919V21.6518L32.7098 21.6071C32.9267 21.555 33.0987 21.6518 33.5399 22.0687C33.7045 22.2325 34.0335 22.4931 34.2654 22.6569C34.8936 23.0961 34.9011 23.2599 34.3476 23.6545C33.7643 24.0714 33.7493 24.4065 34.3102 24.4065C34.587 24.4065 34.8412 24.2725 35.088 23.997C35.2974 23.7587 35.5891 23.1259 35.5891 22.8877C35.5891 22.6569 35.4694 22.5228 34.3701 21.555C34.056 21.2721 33.7942 21.0189 33.7942 20.9817C33.7942 20.9445 33.884 20.8998 34.0036 20.8849C34.1158 20.87 34.228 20.8477 34.2579 20.8402C34.2878 20.8402 34.3925 20.8626 34.4972 20.9072ZM61.3755 23.4163C62.0411 25.7838 62.4001 27.8759 62.5497 30.3775L62.602 31.1816H61.0988C59.6255 31.1816 59.5956 31.1816 59.4909 31.0104C59.3638 30.8168 59.3264 30.5339 59.3937 30.3254C59.4236 30.2435 59.7078 30.0127 60.0219 29.8042C61.226 29.0225 61.7046 28.4045 61.8018 27.4962C61.8916 26.5581 61.5775 25.2627 60.9343 23.9374C60.695 23.446 60.6426 23.2748 60.68 23.0663C60.7473 22.7239 60.9193 22.3218 61.0016 22.3218C61.039 22.3218 61.2035 22.8132 61.3755 23.4163ZM45.0197 26.9751C45.1394 27.0421 45.3861 27.2952 45.5656 27.5409C45.9844 28.1142 46.0742 28.1737 46.65 28.278C46.9118 28.3226 47.2932 28.4269 47.4951 28.5088C47.7045 28.5907 48.0635 28.6726 48.3028 28.7023C48.7291 28.747 48.7366 28.747 48.7815 29.015C48.8039 29.1639 48.8263 29.7074 48.8263 30.2286V31.1816L48.6244 31.189C48.2056 31.2114 47.2334 31.189 47.2035 31.1518C47.1885 31.1369 47.2708 30.8838 47.3979 30.6009C47.6597 30.0127 47.6746 29.8712 47.525 29.5139C47.3156 29.0225 46.7099 28.7619 46.2836 28.9853C46.1415 29.0597 45.8947 29.1118 45.7302 29.1118C45.3861 29.1044 45.3338 29.0523 44.8626 28.2259C44.5261 27.6451 44.4064 27.1612 44.5635 26.9751C44.6832 26.8336 44.743 26.8336 45.0197 26.9751ZM41.056 28.1365C41.2131 28.2929 41.4374 28.747 41.8338 29.7149C41.946 29.9904 42.1703 30.4222 42.3274 30.6679C42.4844 30.9061 42.619 31.1295 42.619 31.1593C42.6265 31.2412 42.3872 31.2635 41.9759 31.2188C41.6019 31.1741 41.587 31.1593 41.4374 30.8242C41.3551 30.6307 41.1308 30.1244 40.9363 29.6926C40.3231 28.3152 40.2633 28.1291 40.3829 28.0472C40.5699 27.9355 40.8915 27.9727 41.056 28.1365ZM2.03981 29.1342C2.09964 29.4171 2.17442 29.8191 2.19686 30.0276C2.22677 30.2286 2.30904 30.5636 2.3913 30.7647C2.46609 30.9731 2.51844 31.1444 2.51096 31.1518C2.47357 31.189 1.48638 31.2039 1.44899 31.1667C1.38168 31.0997 1.56117 28.4045 1.64344 28.2035C1.7257 28.0174 1.7257 28.0174 1.8304 28.3152C1.88275 28.479 1.97998 28.8438 2.03981 29.1342ZM50.3669 29.7298C50.6287 30.0574 50.7035 30.102 50.9802 30.1244C51.3167 30.1467 51.3317 30.1616 51.4065 30.787C51.4513 31.1369 51.4439 31.1816 51.3167 31.1816C51.2419 31.1816 50.9278 31.2039 50.6212 31.2188C49.7462 31.2709 49.7986 31.3454 49.806 30.0797C49.806 29.0299 49.8135 28.9927 49.9332 29.1714C50.0005 29.2756 50.1949 29.5213 50.3669 29.7298ZM56.0358 29.8787C56.3574 30.2435 56.7388 31.0997 56.6116 31.1816C56.5294 31.2263 54.0614 31.2337 53.9193 31.189C53.8969 31.189 53.9866 31.0699 54.1063 30.9359C54.2334 30.8093 54.4503 30.5488 54.5849 30.3626C55.071 29.7149 55.1907 29.6181 55.5048 29.6181C55.7441 29.6181 55.8413 29.6628 56.0358 29.8787ZM4.88918 32.3356C5.69687 32.5664 6.41482 33.1695 6.83363 33.981C7.17765 34.6362 7.52167 34.9414 8.01526 35.0159C8.5986 35.1052 8.79304 35.1945 8.92766 35.4551C9.12958 35.8199 9.05479 36.3634 8.73321 36.8623C7.87316 38.2098 7.85821 38.9693 8.65842 40.5998C8.86783 41.0167 9.18193 41.6644 9.36142 42.0516C9.69796 42.7663 9.8251 42.9301 10.8198 43.8533C11.4405 44.434 11.4854 44.5978 11.5377 46.8314L11.5826 48.6033H9.00992H6.43726L5.89132 47.7248C3.45327 43.7937 1.80797 38.7682 1.53126 34.383C1.4116 32.5887 1.40412 32.2984 1.43403 32.2463C1.50134 32.142 4.47785 32.2239 4.88918 32.3356ZM25.4929 32.9759C25.5378 33.847 25.5602 33.9065 26.166 34.6436C26.4053 34.9265 26.7044 35.3732 26.8316 35.6264C27.1232 36.2071 27.5047 36.5942 27.8412 36.6612C28.0057 36.691 28.3497 36.6464 28.7686 36.5496C29.135 36.4602 29.5239 36.3932 29.6286 36.3932C29.7333 36.3932 30.1222 36.289 30.4961 36.1624C31.603 35.7902 31.4758 35.0159 31.4758 42.3196V48.6033L24.8796 48.5884L18.2909 48.5661L18.0068 47.7397C17.7749 47.0398 17.745 46.876 17.8198 46.7346C17.8647 46.6378 18.1862 46.3921 18.5228 46.1836C19.5249 45.5731 19.7343 45.1115 19.8764 43.1981C19.9437 42.2302 20.011 42.0516 20.4822 41.4187C20.8935 40.8678 21.0057 40.6072 21.0057 40.2275C21.0057 39.8329 20.886 39.5649 20.5794 39.2894C20.2279 38.9693 19.8764 38.7906 18.4704 38.2247C17.73 37.9269 17.042 37.6217 16.9298 37.5547C16.8176 37.4802 16.6082 37.1526 16.3988 36.7208C16.2119 36.3262 15.9202 35.8572 15.7632 35.6859C15.4042 35.2988 15.3518 35.0456 15.277 33.3258L15.2247 32.2239L20.2653 32.209C23.0399 32.1941 25.3433 32.1867 25.3807 32.1941C25.4256 32.1941 25.4705 32.5366 25.4929 32.9759ZM43.0453 32.3133C43.0902 32.3505 43.1949 32.5515 43.2697 32.76C43.5015 33.4077 43.9203 33.4673 44.7355 32.961C44.9524 32.827 45.3039 32.6036 45.5282 32.4696L45.9396 32.2239H47.3904H48.8488L48.7964 33.3556C48.5646 38.329 47.4428 44.1586 45.9321 48.1938L45.79 48.5661L42.6714 48.5884C40.2034 48.6033 39.5528 48.5884 39.5528 48.514C39.5528 48.4619 39.7398 48.0822 39.9716 47.6727C40.368 46.9654 40.3979 46.8909 40.4652 46.1836C40.5475 45.3051 40.6522 45.1041 41.2355 44.6574C42.118 43.9799 42.3498 43.4587 42.2376 42.4387C42.2002 42.1037 42.118 41.6272 42.0581 41.3666C41.9983 41.106 41.946 40.6816 41.946 40.4136C41.946 39.7659 42.1703 39.3787 43.352 38.0088C44.4289 36.7655 44.7804 36.2518 45.087 35.5296C45.3936 34.7851 45.4385 34.4649 45.2515 34.2341L45.102 34.0554L44.4513 34.1746C43.524 34.3532 43.4641 34.316 42.5742 33.0057L42.0731 32.2611L42.3648 32.2165C42.6789 32.1718 42.9032 32.2016 43.0453 32.3133ZM14.23 32.5366C14.2824 32.9014 14.3273 34.5319 14.2899 34.5319C14.2749 34.5319 14.0655 34.383 13.8262 34.1969C13.3326 33.8172 13.1905 33.7502 12.667 33.6832C12.4651 33.6534 12.0537 33.5492 11.7546 33.4449C11.1787 33.2514 10.4159 33.2067 10.1392 33.3481C10.0495 33.4003 9.74283 33.6534 9.46612 33.9214C8.98749 34.3756 8.94261 34.3979 8.68086 34.3607C8.12744 34.2639 7.76846 33.8023 7.76846 33.1695C7.76846 32.9759 7.71611 32.693 7.65628 32.5441C7.59645 32.4026 7.5441 32.2686 7.5441 32.2537C7.5441 32.2388 9.03984 32.2239 10.8646 32.2239H14.1926L14.23 32.5366ZM51.7056 32.4994C51.8402 33.3333 52.1618 34.1746 52.5358 34.6585C52.7751 34.9786 53.0967 34.9935 53.2911 34.7032C53.4033 34.5394 53.4182 34.3607 53.4033 33.646C53.3883 33.1769 53.4033 32.6632 53.4257 32.5068L53.4781 32.2239L55.5048 32.2388L57.539 32.2611L57.6362 32.4771C57.696 32.5887 57.7708 33.1248 57.8007 33.6683C57.8905 35.0159 58.2121 36.0061 58.7804 36.6464C59.0422 36.9516 59.2591 37.041 59.4086 36.9144C59.648 36.7134 59.4386 36.0582 58.9001 35.3062C58.5935 34.8819 58.4364 34.5245 58.3616 34.1001C58.227 33.2811 58.5785 33.0727 59.0048 33.7278C59.1469 33.9438 59.3488 34.1671 59.461 34.2267C59.6405 34.3309 59.6704 34.3309 59.8275 34.1969C60.2388 33.8321 60.4856 32.7823 60.2687 32.3654C60.1939 32.2314 60.2238 32.2239 61.398 32.2239H62.6095L62.5572 33.1695C62.4824 34.4798 62.3852 35.1275 62.2206 35.3509C62.1458 35.4551 61.8018 35.7827 61.4578 36.088C60.4856 36.9442 60.2463 37.3909 60.4183 38.0237C60.5304 38.4555 60.7398 38.664 61.2409 38.8427C61.5999 38.9767 61.6896 39.0363 61.6896 39.1703C61.6896 39.4457 61.5401 39.8999 61.4354 39.9371C61.383 39.9595 61.0614 39.9074 60.7249 39.818C60.3809 39.7361 60.0443 39.684 59.9695 39.7063C59.7826 39.7659 59.6554 40.1382 59.7676 40.2945C59.8723 40.4285 60.4257 40.6221 60.8969 40.6816C61.1138 40.7114 61.2409 40.771 61.2409 40.8306C61.2409 41.0092 60.6127 42.7886 60.2313 43.6895C59.7377 44.851 58.7655 46.7495 58.1298 47.762L57.6138 48.5959L52.2516 48.6033C49.2975 48.6033 46.8819 48.5735 46.8819 48.5438C46.8819 48.5065 47.0614 47.9333 47.2857 47.2557C48.6693 43.0864 49.5518 38.1503 49.7686 33.3556L49.821 32.2239H50.7409H51.6607L51.7056 32.4994ZM32.822 36.5794C33.1436 36.7431 33.181 36.8697 33.2258 37.8153C33.2782 38.7608 33.3006 38.865 33.7718 39.9595C34.3776 41.3889 34.4449 41.9994 34.0934 43.1311C33.9737 43.5332 33.869 44.0022 33.869 44.1809C33.869 44.367 33.9961 44.851 34.1682 45.3423C34.3327 45.8039 34.5421 46.4814 34.6243 46.8463C34.7141 47.2111 34.8786 47.7397 34.9983 48.03C35.1179 48.313 35.2152 48.5587 35.2152 48.5735C35.2152 48.5884 34.6094 48.6033 33.869 48.6033H32.5228V42.5355C32.5228 39.2001 32.5378 36.4677 32.5602 36.4677C32.5902 36.4677 32.7023 36.5198 32.822 36.5794ZM11.6798 50.2934C11.792 52.0877 12.4277 55.0657 12.7866 55.4976C12.8315 55.5497 12.854 55.6539 12.839 55.7284C12.8091 55.8773 12.2108 55.3487 10.7225 53.8522C9.58578 52.7131 7.09538 49.802 7.09538 49.6159C7.09538 49.5935 8.11996 49.5712 9.36142 49.5712H11.6349L11.6798 50.2934ZM17.6627 49.8318C17.8198 50.3157 18.6574 52.2664 19.136 53.2789C20.5645 56.2346 22.5837 59.2425 24.4608 61.208C24.8198 61.5728 24.9694 61.7813 24.8871 61.7813C24.7301 61.7813 22.494 61.1112 21.7087 60.8283C20.1531 60.2625 18.2461 59.3467 16.5335 58.3416C15.6435 57.813 15.3967 57.6418 15.4341 57.545C15.5986 57.1281 15.5687 57.0536 15.0676 56.4952C14.4918 55.8549 14.417 55.6241 14.604 55.0434C14.761 54.5446 14.7535 54.3659 14.574 54.1351C14.4469 53.9713 14.432 53.8522 14.4544 53.197C14.4693 52.7801 14.4993 52.3855 14.5292 52.3259C14.5591 52.2664 14.7535 52.0802 14.9629 51.9164C15.4416 51.5442 15.6211 51.2538 15.6211 50.8667C15.6211 50.5986 15.6585 50.5316 15.9277 50.3232C16.0922 50.1892 16.2867 49.9658 16.354 49.8243L16.4736 49.5638L17.0345 49.5861C17.5805 49.6084 17.5954 49.6159 17.6627 49.8318ZM31.4758 56.0932V62.6226L30.6008 62.5705C29.681 62.5184 27.6542 62.2801 27.1382 62.161C26.9064 62.1089 26.6895 61.9525 26.1884 61.4686C23.2493 58.6245 20.7066 54.6935 18.9491 50.2859C18.807 49.9137 18.6873 49.6084 18.6873 49.5935C18.6873 49.5786 21.5666 49.5712 25.0816 49.5712H31.4758V56.0932ZM35.4096 49.9211C35.5367 50.8518 35.791 50.9932 36.8605 50.7326C37.8252 50.4944 38.0047 50.4051 38.5731 49.9583L39.0517 49.5712H42.2152H45.3861L45.2216 49.9583C45.1394 50.1743 45.0047 50.5018 44.9374 50.688C43.9278 53.2342 41.4972 57.3514 39.8744 59.2574C38.7974 60.5305 38.2515 61.1112 37.7056 61.5952C37.1671 62.0642 37.0325 62.1461 36.6585 62.2206C36.0079 62.3397 34.3925 62.5184 33.4053 62.5705L32.5228 62.6226L32.5079 56.1304C32.4929 52.5567 32.5004 49.6159 32.5154 49.601C32.5303 49.5861 33.181 49.5712 33.9513 49.5712H35.3573L35.4096 49.9211ZM56.7462 49.8094C55.9535 50.9411 54.2633 52.862 53.0144 54.0606C49.6714 57.2695 46.2163 59.4286 42.0207 60.9251C41.1009 61.2527 39.0143 61.8632 38.962 61.8111C38.947 61.7962 39.2163 61.4909 39.5677 61.1261C41.4225 59.2499 43.1575 56.7111 44.743 53.5395C45.3562 52.311 45.9321 51.0156 46.2462 50.1445L46.4556 49.5712H51.6832H56.9108L56.7462 49.8094Z" fill="#3474F6"/>
</svg>
