<svg width="167" height="14" viewBox="0 0 167 14" fill="none" xmlns="http://www.w3.org/2000/svg">
<path d="M1.7102 7.91446C0.450913 8.98938 0.852012 10.2152 1.38209 10.8036C2.65983 12.2221 4.41632 11.0681 5.0617 10.6369C5.70709 10.2057 5.53747 11.9614 7.09347 12.168C8.64946 12.3746 8.75804 10.7825 8.16869 9.72698C8.04015 9.49676 8.02637 9.26286 8.20258 9.1898C8.65208 9.00344 9.23865 9.79385 9.72789 10.049C11.175 10.8036 11.9985 9.13437 11.1103 8.50646C10.463 8.04888 9.66104 8.45687 9.50795 7.60386C9.33692 6.65098 10.2816 6.9229 10.6012 5.80783C10.6537 5.6246 10.776 5.46594 10.9417 5.37598C12.6813 4.43114 11.9073 2.25279 10.1218 2.25279C8.84474 2.25279 9.14681 1.41835 8.526 0.91083C7.82903 0.341061 6.44704 0.741834 5.66584 1.67667C4.74584 2.7776 4.92658 1.25643 3.91942 1.14587C2.91227 1.03531 2.40935 2.12249 3.24752 2.95165C3.57447 3.29915 3.58885 3.78491 3.04418 3.47272C2.46329 3.13978 1.11511 2.80218 1.22617 4.38745C1.27485 5.08243 2.10009 5.86474 1.58537 5.81195C0.29276 5.67939 0.30564 7.28501 1.65683 7.67529C1.75669 7.70414 1.78969 7.84661 1.7102 7.91446Z" fill="#1F1F1F"/>
<path d="M11.8615 7.38039C11.8615 7.75748 11.5607 8.06317 11.1896 8.06317C10.8185 8.06317 10.3695 7.75748 10.3695 7.38039C10.3695 7.0033 10.8185 6.80723 11.1896 6.80723C11.5607 6.80723 11.8615 7.0033 11.8615 7.38039Z" fill="#1F1F1F"/>
<path d="M10.366 10.9565C10.366 11.1549 10.2076 11.3158 10.0123 11.3158C9.81702 11.3158 9.65869 11.1549 9.65869 10.9565C9.65869 10.758 9.81702 10.5971 10.0123 10.5971C10.2076 10.5971 10.366 10.758 10.366 10.9565Z" fill="#1F1F1F"/>
<path d="M12 6.04715C12 6.24562 11.8621 6.33467 11.6668 6.33467C11.3707 6.25544 11.3132 6.17378 11.3132 5.97531C11.3132 5.77684 11.4715 5.7073 11.6668 5.7073C11.8621 5.7073 12 5.84868 12 6.04715Z" fill="#1F1F1F"/>
<path d="M4.91389 11.9478C4.91389 12.2525 4.63696 12.4996 4.29537 12.4996C3.95377 12.4996 3.67685 12.2525 3.67685 11.9478C3.67685 11.643 3.95377 11.396 4.29537 11.396C4.63696 11.396 4.91389 11.643 4.91389 11.9478Z" fill="#1F1F1F"/>
<path d="M0.913368 8.19979C0.963078 8.32956 1.00281 8.54435 0.839947 8.60878C0.67708 8.6732 0.373284 8.56286 0.323574 8.43309C0.273864 8.30332 0.365595 8.14589 0.528463 8.08147C0.69133 8.01704 0.863658 8.07002 0.913368 8.19979Z" fill="#1F1F1F"/>
<path d="M2.00335 1.5788C2.13557 1.77543 2.07128 2.0539 1.85975 2.20078C1.64822 2.34767 1.36956 2.30735 1.23734 2.11072C1.10512 1.9141 1.16941 1.63563 1.38094 1.48875C1.59247 1.34186 1.87113 1.38218 2.00335 1.5788Z" fill="#1F1F1F"/>
<path d="M5.74023 0.928803C5.74023 1.16159 5.55453 1.3503 5.32545 1.3503C5.09637 1.3503 4.91067 1.16159 4.91067 0.928803C4.91067 0.696018 5.25921 0.5 5.48829 0.5C5.71737 0.5 5.74023 0.696018 5.74023 0.928803Z" fill="#1F1F1F"/>
<path d="M8.92385 10.0339C9.56755 11.4445 8.16149 12.5992 6.92503 12.4932C5.68856 12.3873 5.23072 11.8355 5.07609 11.2727C4.93944 10.8196 4.98259 10.2023 4.42161 10.2824C3.44277 10.4222 2.67033 10.6478 2.02664 9.89873C1.35155 9.11306 1.90078 8.36029 1.76413 7.97294C1.53037 7.5527 0.501919 8.16661 0.0896274 7.2092C-0.290299 6.03619 0.601086 5.30601 1.56993 5.5714C1.7928 5.63245 2.01613 5.70858 2.2362 5.7836C2.9728 6.03471 3.58373 6.25544 4.13752 5.93752C4.40722 5.78269 4.51914 5.47607 4.61547 5.21772C4.7792 4.7786 5.01855 4.21697 5.80522 4.21697C6.92503 4.21697 7.99963 5.70216 6.95322 6.89859C6.10758 7.86547 5.03822 7.50967 4.94205 7.69124C4.83156 7.89985 5.97097 7.96454 6.56845 7.69124C7.59332 7.22244 7.91887 6.40107 7.96011 5.63422C7.98189 5.22937 8.06376 4.81085 8.27534 4.43308C8.6116 3.83268 9.5286 3.7714 10.2776 4.29932C11.0265 4.82725 11.1309 5.53811 10.7066 6.24784C10.4561 6.59498 10.1004 6.84886 9.75464 7.0956C9.21411 7.48138 8.69803 7.84972 8.64666 8.52977C8.59591 9.2016 8.63831 9.50101 8.92385 10.0339Z" fill="#CACACA"/>
<path d="M3.70797 0.923893C4.42741 0.923893 4.7869 1.41524 4.99363 1.77393C5.0508 1.87311 5.16542 1.92517 5.277 1.90629C8.58011 1.34747 7.90109 4.85111 6.7182 4.04462C5.84796 3.45129 4.45269 3.7669 4.10747 5.15917C3.82205 6.31026 0.798064 5.04223 0.651785 3.89269C0.532911 2.95852 1.23132 2.66917 2.12605 2.94469C2.51083 3.06318 2.77334 3.32474 2.92169 3.24799C3.15639 3.12657 2.92529 2.84968 2.72391 2.48426C2.34027 1.7881 2.72391 0.923893 3.70797 0.923893Z" fill="#CACACA"/>
<line opacity="0.2" x1="18.3" y1="1.31134e-08" x2="18.3" y2="13" stroke="black" stroke-width="0.6"/>
<path opacity="0.4" d="M28.476 10.596C27.604 10.596 26.876 10.412 26.292 10.044C25.716 9.668 25.284 9.156 24.996 8.508C24.716 7.852 24.576 7.104 24.576 6.264C24.576 5.432 24.72 4.692 25.008 4.044C25.296 3.388 25.728 2.872 26.304 2.496C26.888 2.112 27.62 1.92 28.5 1.92C29.124 1.92 29.66 2.02 30.108 2.22C30.564 2.412 30.932 2.68 31.212 3.024C31.492 3.368 31.684 3.772 31.788 4.236H30.732C30.612 3.82 30.352 3.488 29.952 3.24C29.56 2.992 29.064 2.868 28.464 2.868C27.792 2.868 27.248 3.028 26.832 3.348C26.424 3.66 26.124 4.072 25.932 4.584C25.74 5.088 25.644 5.636 25.644 6.228C25.644 6.852 25.744 7.424 25.944 7.944C26.144 8.464 26.456 8.88 26.88 9.192C27.304 9.496 27.844 9.648 28.5 9.648C28.9 9.648 29.256 9.592 29.568 9.48C29.888 9.368 30.152 9.208 30.36 9C30.576 8.792 30.724 8.552 30.804 8.28H31.944C31.824 8.744 31.608 9.152 31.296 9.504C30.992 9.848 30.604 10.116 30.132 10.308C29.66 10.5 29.108 10.596 28.476 10.596ZM33.2532 10.5V4.176H34.2372L34.2852 5.16C34.4452 4.912 34.6292 4.712 34.8372 4.56C35.0532 4.408 35.2892 4.296 35.5452 4.224C35.8092 4.144 36.0932 4.104 36.3972 4.104C36.4532 4.104 36.5052 4.104 36.5532 4.104C36.6092 4.104 36.6652 4.104 36.7212 4.104V5.064H36.3492C35.8532 5.064 35.4492 5.172 35.1372 5.388C34.8332 5.596 34.6132 5.88 34.4772 6.24C34.3412 6.592 34.2732 6.984 34.2732 7.416V10.5H33.2532ZM40.3486 10.572C39.6766 10.572 39.1206 10.436 38.6806 10.164C38.2406 9.884 37.9126 9.5 37.6966 9.012C37.4806 8.524 37.3726 7.968 37.3726 7.344C37.3726 6.712 37.4846 6.156 37.7086 5.676C37.9406 5.188 38.2766 4.804 38.7166 4.524C39.1566 4.244 39.6966 4.104 40.3366 4.104C40.8326 4.104 41.2566 4.2 41.6086 4.392C41.9686 4.576 42.2646 4.824 42.4966 5.136C42.7286 5.448 42.8966 5.792 43.0006 6.168C43.1046 6.536 43.1486 6.908 43.1326 7.284C43.1246 7.356 43.1166 7.428 43.1086 7.5C43.1086 7.572 43.1046 7.644 43.0966 7.716H38.4046C38.4366 8.084 38.5286 8.416 38.6806 8.712C38.8326 9.008 39.0486 9.244 39.3286 9.42C39.6086 9.588 39.9566 9.672 40.3726 9.672C40.5806 9.672 40.7886 9.648 40.9966 9.6C41.2126 9.544 41.4046 9.452 41.5726 9.324C41.7486 9.196 41.8726 9.024 41.9446 8.808H42.9886C42.8926 9.216 42.7126 9.552 42.4486 9.816C42.1846 10.072 41.8686 10.264 41.5006 10.392C41.1326 10.512 40.7486 10.572 40.3486 10.572ZM38.4286 6.828H42.0886C42.0806 6.468 42.0006 6.152 41.8486 5.88C41.6966 5.608 41.4886 5.396 41.2246 5.244C40.9686 5.092 40.6606 5.016 40.3006 5.016C39.9086 5.016 39.5766 5.1 39.3046 5.268C39.0406 5.436 38.8366 5.656 38.6926 5.928C38.5486 6.2 38.4606 6.5 38.4286 6.828ZM46.5195 10.572C46.2315 10.572 45.9515 10.536 45.6795 10.464C45.4155 10.384 45.1755 10.268 44.9595 10.116C44.7515 9.956 44.5835 9.76 44.4555 9.528C44.3355 9.288 44.2755 9.012 44.2755 8.7C44.2755 8.34 44.3395 8.036 44.4675 7.788C44.6035 7.54 44.7835 7.344 45.0075 7.2C45.2315 7.056 45.4915 6.952 45.7875 6.888C46.0835 6.824 46.3915 6.792 46.7115 6.792H48.5715C48.5715 6.432 48.5195 6.12 48.4155 5.856C48.3195 5.592 48.1595 5.388 47.9355 5.244C47.7115 5.092 47.4155 5.016 47.0475 5.016C46.8235 5.016 46.6155 5.04 46.4235 5.088C46.2315 5.136 46.0675 5.212 45.9315 5.316C45.7955 5.42 45.6955 5.56 45.6315 5.736H44.5395C44.5955 5.448 44.7035 5.204 44.8635 5.004C45.0315 4.796 45.2315 4.628 45.4635 4.5C45.7035 4.364 45.9595 4.264 46.2315 4.2C46.5035 4.136 46.7755 4.104 47.0475 4.104C47.9595 4.104 48.6075 4.372 48.9915 4.908C49.3755 5.444 49.5675 6.168 49.5675 7.08V10.5H48.7155L48.6555 9.696C48.4795 9.936 48.2675 10.12 48.0195 10.248C47.7715 10.376 47.5155 10.46 47.2515 10.5C46.9955 10.548 46.7515 10.572 46.5195 10.572ZM46.6155 9.672C47.0155 9.672 47.3595 9.608 47.6475 9.48C47.9435 9.344 48.1715 9.148 48.3315 8.892C48.4915 8.636 48.5715 8.324 48.5715 7.956V7.644H47.4555C47.1915 7.644 46.9315 7.648 46.6755 7.656C46.4195 7.664 46.1875 7.696 45.9795 7.752C45.7715 7.808 45.6035 7.904 45.4755 8.04C45.3555 8.176 45.2955 8.372 45.2955 8.628C45.2955 8.868 45.3555 9.064 45.4755 9.216C45.6035 9.368 45.7675 9.484 45.9675 9.564C46.1755 9.636 46.3915 9.672 46.6155 9.672ZM53.5238 10.572C52.8598 10.572 52.3918 10.392 52.1198 10.032C51.8558 9.672 51.7238 9.16 51.7238 8.496V5.076H50.6918V4.176H51.7238V2.28H52.7438V4.176H54.6878V5.076H52.7438V8.364C52.7438 8.604 52.7638 8.824 52.8038 9.024C52.8438 9.216 52.9278 9.372 53.0558 9.492C53.1838 9.604 53.3758 9.664 53.6318 9.672C53.8158 9.672 53.9758 9.64 54.1118 9.576C54.2558 9.512 54.3758 9.436 54.4718 9.348L54.9158 10.092C54.7798 10.204 54.6358 10.296 54.4838 10.368C54.3398 10.44 54.1878 10.492 54.0278 10.524C53.8758 10.556 53.7078 10.572 53.5238 10.572ZM58.6416 10.572C57.9696 10.572 57.4136 10.436 56.9736 10.164C56.5336 9.884 56.2056 9.5 55.9896 9.012C55.7736 8.524 55.6656 7.968 55.6656 7.344C55.6656 6.712 55.7776 6.156 56.0016 5.676C56.2336 5.188 56.5696 4.804 57.0096 4.524C57.4496 4.244 57.9896 4.104 58.6296 4.104C59.1256 4.104 59.5496 4.2 59.9016 4.392C60.2616 4.576 60.5576 4.824 60.7896 5.136C61.0216 5.448 61.1896 5.792 61.2936 6.168C61.3976 6.536 61.4416 6.908 61.4256 7.284C61.4176 7.356 61.4096 7.428 61.4016 7.5C61.4016 7.572 61.3976 7.644 61.3896 7.716H56.6976C56.7296 8.084 56.8216 8.416 56.9736 8.712C57.1256 9.008 57.3416 9.244 57.6216 9.42C57.9016 9.588 58.2496 9.672 58.6656 9.672C58.8736 9.672 59.0816 9.648 59.2896 9.6C59.5056 9.544 59.6976 9.452 59.8656 9.324C60.0416 9.196 60.1656 9.024 60.2376 8.808H61.2816C61.1856 9.216 61.0056 9.552 60.7416 9.816C60.4776 10.072 60.1616 10.264 59.7936 10.392C59.4256 10.512 59.0416 10.572 58.6416 10.572ZM56.7216 6.828H60.3816C60.3736 6.468 60.2936 6.152 60.1416 5.88C59.9896 5.608 59.7816 5.396 59.5176 5.244C59.2616 5.092 58.9536 5.016 58.5936 5.016C58.2016 5.016 57.8696 5.1 57.5976 5.268C57.3336 5.436 57.1296 5.656 56.9856 5.928C56.8416 6.2 56.7536 6.5 56.7216 6.828ZM65.3165 10.572C64.6845 10.572 64.1645 10.432 63.7565 10.152C63.3485 9.864 63.0445 9.48 62.8445 9C62.6445 8.512 62.5445 7.964 62.5445 7.356C62.5445 6.748 62.6445 6.2 62.8445 5.712C63.0445 5.216 63.3525 4.824 63.7685 4.536C64.1845 4.248 64.7165 4.104 65.3645 4.104C65.6125 4.104 65.8605 4.136 66.1085 4.2C66.3645 4.256 66.6045 4.348 66.8285 4.476C67.0525 4.596 67.2445 4.76 67.4045 4.968V2.016H68.4245V10.5H67.4525L67.4045 9.552C67.2605 9.792 67.0765 9.988 66.8525 10.14C66.6365 10.284 66.3965 10.392 66.1325 10.464C65.8685 10.536 65.5965 10.572 65.3165 10.572ZM65.4605 9.672C65.8845 9.672 66.2405 9.564 66.5285 9.348C66.8165 9.132 67.0365 8.844 67.1885 8.484C67.3405 8.124 67.4165 7.732 67.4165 7.308C67.4165 6.868 67.3405 6.476 67.1885 6.132C67.0445 5.788 66.8285 5.516 66.5405 5.316C66.2525 5.116 65.8885 5.016 65.4485 5.016C64.9925 5.016 64.6245 5.12 64.3445 5.328C64.0725 5.536 63.8725 5.82 63.7445 6.18C63.6245 6.532 63.5645 6.928 63.5645 7.368C63.5645 7.688 63.5965 7.988 63.6605 8.268C63.7325 8.54 63.8405 8.784 63.9845 9C64.1365 9.208 64.3325 9.372 64.5725 9.492C64.8125 9.612 65.1085 9.672 65.4605 9.672ZM73.261 10.5V4.176H74.281V10.5H73.261ZM73.765 3.24C73.557 3.24 73.389 3.176 73.261 3.048C73.141 2.92 73.081 2.756 73.081 2.556C73.081 2.356 73.145 2.196 73.273 2.076C73.401 1.948 73.565 1.884 73.765 1.884C73.949 1.884 74.109 1.948 74.245 2.076C74.389 2.204 74.461 2.364 74.461 2.556C74.461 2.756 74.393 2.92 74.257 3.048C74.121 3.176 73.957 3.24 73.765 3.24ZM75.886 10.5V4.176H76.87L76.918 5.136C77.062 4.904 77.246 4.712 77.47 4.56C77.694 4.408 77.938 4.296 78.202 4.224C78.474 4.144 78.738 4.104 78.994 4.104C79.61 4.104 80.09 4.232 80.434 4.488C80.786 4.744 81.034 5.092 81.178 5.532C81.33 5.964 81.406 6.456 81.406 7.008V10.5H80.386V7.284C80.386 6.988 80.366 6.704 80.326 6.432C80.294 6.16 80.222 5.916 80.11 5.7C80.006 5.484 79.854 5.316 79.654 5.196C79.454 5.068 79.186 5.004 78.85 5.004C78.434 5.004 78.078 5.12 77.782 5.352C77.494 5.584 77.274 5.896 77.122 6.288C76.978 6.68 76.906 7.12 76.906 7.608V10.5H75.886ZM86.4503 10.5V2.016H92.1503V2.964H87.4943V5.82H91.6823V6.78H87.4943V9.552H92.1503V10.5H86.4503ZM95.2505 10.5L92.8145 4.176H93.9665L95.9585 9.516L97.9145 4.176H99.0785L96.6425 10.5H95.2505ZM102.728 10.572C102.064 10.572 101.508 10.436 101.06 10.164C100.612 9.884 100.276 9.5 100.052 9.012C99.8361 8.524 99.7281 7.968 99.7281 7.344C99.7281 6.712 99.8401 6.156 100.064 5.676C100.288 5.188 100.624 4.804 101.072 4.524C101.52 4.244 102.08 4.104 102.752 4.104C103.416 4.104 103.968 4.244 104.408 4.524C104.856 4.804 105.188 5.188 105.404 5.676C105.628 6.156 105.74 6.712 105.74 7.344C105.74 7.968 105.628 8.524 105.404 9.012C105.18 9.5 104.844 9.884 104.396 10.164C103.956 10.436 103.4 10.572 102.728 10.572ZM102.728 9.672C103.192 9.672 103.568 9.568 103.856 9.36C104.152 9.152 104.368 8.872 104.504 8.52C104.648 8.168 104.72 7.776 104.72 7.344C104.72 6.912 104.648 6.52 104.504 6.168C104.368 5.816 104.152 5.536 103.856 5.328C103.568 5.12 103.192 5.016 102.728 5.016C102.272 5.016 101.896 5.12 101.6 5.328C101.312 5.536 101.096 5.816 100.952 6.168C100.816 6.52 100.748 6.912 100.748 7.344C100.748 7.776 100.816 8.168 100.952 8.52C101.096 8.872 101.312 9.152 101.6 9.36C101.896 9.568 102.272 9.672 102.728 9.672ZM107.105 10.5V2.016H108.125V10.5H107.105ZM111.446 10.5L109.01 4.176H110.162L112.154 9.516L114.11 4.176H115.274L112.838 10.5H111.446ZM118.899 10.572C118.227 10.572 117.671 10.436 117.231 10.164C116.791 9.884 116.463 9.5 116.247 9.012C116.031 8.524 115.923 7.968 115.923 7.344C115.923 6.712 116.035 6.156 116.259 5.676C116.491 5.188 116.827 4.804 117.267 4.524C117.707 4.244 118.247 4.104 118.887 4.104C119.383 4.104 119.807 4.2 120.159 4.392C120.519 4.576 120.815 4.824 121.047 5.136C121.279 5.448 121.447 5.792 121.551 6.168C121.655 6.536 121.699 6.908 121.683 7.284C121.675 7.356 121.667 7.428 121.659 7.5C121.659 7.572 121.655 7.644 121.647 7.716H116.955C116.987 8.084 117.079 8.416 117.231 8.712C117.383 9.008 117.599 9.244 117.879 9.42C118.159 9.588 118.507 9.672 118.923 9.672C119.131 9.672 119.339 9.648 119.547 9.6C119.763 9.544 119.955 9.452 120.123 9.324C120.299 9.196 120.423 9.024 120.495 8.808H121.539C121.443 9.216 121.263 9.552 120.999 9.816C120.735 10.072 120.419 10.264 120.051 10.392C119.683 10.512 119.299 10.572 118.899 10.572ZM116.979 6.828H120.639C120.631 6.468 120.551 6.152 120.399 5.88C120.247 5.608 120.039 5.396 119.775 5.244C119.519 5.092 119.211 5.016 118.851 5.016C118.459 5.016 118.127 5.1 117.855 5.268C117.591 5.436 117.387 5.656 117.243 5.928C117.099 6.2 117.011 6.5 116.979 6.828ZM128.305 10.572C128.017 10.572 127.737 10.536 127.465 10.464C127.201 10.384 126.961 10.268 126.745 10.116C126.537 9.956 126.369 9.76 126.241 9.528C126.121 9.288 126.061 9.012 126.061 8.7C126.061 8.34 126.125 8.036 126.253 7.788C126.389 7.54 126.569 7.344 126.793 7.2C127.017 7.056 127.277 6.952 127.573 6.888C127.869 6.824 128.177 6.792 128.497 6.792H130.357C130.357 6.432 130.305 6.12 130.201 5.856C130.105 5.592 129.945 5.388 129.721 5.244C129.497 5.092 129.201 5.016 128.833 5.016C128.609 5.016 128.401 5.04 128.209 5.088C128.017 5.136 127.853 5.212 127.717 5.316C127.581 5.42 127.481 5.56 127.417 5.736H126.325C126.381 5.448 126.489 5.204 126.649 5.004C126.817 4.796 127.017 4.628 127.249 4.5C127.489 4.364 127.745 4.264 128.017 4.2C128.289 4.136 128.561 4.104 128.833 4.104C129.745 4.104 130.393 4.372 130.777 4.908C131.161 5.444 131.353 6.168 131.353 7.08V10.5H130.501L130.441 9.696C130.265 9.936 130.053 10.12 129.805 10.248C129.557 10.376 129.301 10.46 129.037 10.5C128.781 10.548 128.537 10.572 128.305 10.572ZM128.401 9.672C128.801 9.672 129.145 9.608 129.433 9.48C129.729 9.344 129.957 9.148 130.117 8.892C130.277 8.636 130.357 8.324 130.357 7.956V7.644H129.241C128.977 7.644 128.717 7.648 128.461 7.656C128.205 7.664 127.973 7.696 127.765 7.752C127.557 7.808 127.389 7.904 127.261 8.04C127.141 8.176 127.081 8.372 127.081 8.628C127.081 8.868 127.141 9.064 127.261 9.216C127.389 9.368 127.553 9.484 127.753 9.564C127.961 9.636 128.177 9.672 128.401 9.672ZM135.681 13.332C135.249 13.332 134.849 13.264 134.481 13.128C134.113 13 133.801 12.796 133.545 12.516C133.289 12.236 133.117 11.88 133.029 11.448H134.085C134.149 11.688 134.269 11.88 134.445 12.024C134.621 12.168 134.825 12.268 135.057 12.324C135.289 12.388 135.517 12.42 135.741 12.42C136.173 12.42 136.521 12.332 136.785 12.156C137.057 11.988 137.253 11.752 137.373 11.448C137.493 11.152 137.553 10.812 137.553 10.428V9.552C137.417 9.792 137.237 9.988 137.013 10.14C136.789 10.292 136.545 10.404 136.281 10.476C136.017 10.54 135.745 10.572 135.465 10.572C134.825 10.572 134.301 10.432 133.893 10.152C133.485 9.864 133.181 9.48 132.981 9C132.789 8.512 132.693 7.964 132.693 7.356C132.693 6.748 132.793 6.2 132.993 5.712C133.193 5.216 133.501 4.824 133.917 4.536C134.333 4.248 134.865 4.104 135.513 4.104C135.881 4.104 136.253 4.172 136.629 4.308C137.005 4.444 137.313 4.664 137.553 4.968L137.601 4.176H138.573V10.452C138.573 11.044 138.465 11.556 138.249 11.988C138.041 12.42 137.721 12.752 137.289 12.984C136.865 13.216 136.329 13.332 135.681 13.332ZM135.609 9.672C136.033 9.672 136.389 9.564 136.677 9.348C136.965 9.132 137.185 8.844 137.337 8.484C137.489 8.124 137.565 7.732 137.565 7.308C137.565 6.868 137.489 6.476 137.337 6.132C137.193 5.788 136.977 5.516 136.689 5.316C136.401 5.116 136.037 5.016 135.597 5.016C135.141 5.016 134.773 5.12 134.493 5.328C134.221 5.536 134.021 5.816 133.893 6.168C133.773 6.52 133.713 6.912 133.713 7.344C133.713 7.792 133.777 8.192 133.905 8.544C134.033 8.896 134.237 9.172 134.517 9.372C134.797 9.572 135.161 9.672 135.609 9.672ZM142.203 10.572C141.915 10.572 141.635 10.536 141.363 10.464C141.099 10.384 140.859 10.268 140.643 10.116C140.435 9.956 140.267 9.76 140.139 9.528C140.019 9.288 139.959 9.012 139.959 8.7C139.959 8.34 140.023 8.036 140.151 7.788C140.287 7.54 140.467 7.344 140.691 7.2C140.915 7.056 141.175 6.952 141.471 6.888C141.767 6.824 142.075 6.792 142.395 6.792H144.255C144.255 6.432 144.203 6.12 144.099 5.856C144.003 5.592 143.843 5.388 143.619 5.244C143.395 5.092 143.099 5.016 142.731 5.016C142.507 5.016 142.299 5.04 142.107 5.088C141.915 5.136 141.751 5.212 141.615 5.316C141.479 5.42 141.379 5.56 141.315 5.736H140.223C140.279 5.448 140.387 5.204 140.547 5.004C140.715 4.796 140.915 4.628 141.147 4.5C141.387 4.364 141.643 4.264 141.915 4.2C142.187 4.136 142.459 4.104 142.731 4.104C143.643 4.104 144.291 4.372 144.675 4.908C145.059 5.444 145.251 6.168 145.251 7.08V10.5H144.399L144.339 9.696C144.163 9.936 143.951 10.12 143.703 10.248C143.455 10.376 143.199 10.46 142.935 10.5C142.679 10.548 142.435 10.572 142.203 10.572ZM142.299 9.672C142.699 9.672 143.043 9.608 143.331 9.48C143.627 9.344 143.855 9.148 144.015 8.892C144.175 8.636 144.255 8.324 144.255 7.956V7.644H143.139C142.875 7.644 142.615 7.648 142.359 7.656C142.103 7.664 141.871 7.696 141.663 7.752C141.455 7.808 141.287 7.904 141.159 8.04C141.039 8.176 140.979 8.372 140.979 8.628C140.979 8.868 141.039 9.064 141.159 9.216C141.287 9.368 141.451 9.484 141.651 9.564C141.859 9.636 142.075 9.672 142.299 9.672ZM146.831 10.5V4.176H147.815L147.863 5.136C148.007 4.904 148.191 4.712 148.415 4.56C148.639 4.408 148.883 4.296 149.147 4.224C149.419 4.144 149.683 4.104 149.939 4.104C150.555 4.104 151.035 4.232 151.379 4.488C151.731 4.744 151.979 5.092 152.123 5.532C152.275 5.964 152.351 6.456 152.351 7.008V10.5H151.331V7.284C151.331 6.988 151.311 6.704 151.271 6.432C151.239 6.16 151.167 5.916 151.055 5.7C150.951 5.484 150.799 5.316 150.599 5.196C150.399 5.068 150.131 5.004 149.795 5.004C149.379 5.004 149.023 5.12 148.727 5.352C148.439 5.584 148.219 5.896 148.067 6.288C147.923 6.68 147.851 7.12 147.851 7.608V10.5H146.831ZM156.621 10.572C155.957 10.572 155.405 10.436 154.965 10.164C154.533 9.884 154.209 9.5 153.993 9.012C153.785 8.524 153.681 7.972 153.681 7.356C153.681 6.756 153.789 6.212 154.005 5.724C154.229 5.228 154.565 4.836 155.013 4.548C155.469 4.252 156.045 4.104 156.741 4.104C157.173 4.104 157.557 4.176 157.893 4.32C158.237 4.464 158.521 4.676 158.745 4.956C158.969 5.228 159.125 5.572 159.213 5.988H158.169C158.049 5.636 157.857 5.388 157.593 5.244C157.337 5.092 157.033 5.016 156.681 5.016C156.201 5.016 155.817 5.128 155.529 5.352C155.241 5.576 155.029 5.868 154.893 6.228C154.765 6.58 154.701 6.956 154.701 7.356C154.701 7.772 154.769 8.156 154.905 8.508C155.041 8.86 155.253 9.144 155.541 9.36C155.829 9.568 156.201 9.672 156.657 9.672C156.993 9.672 157.309 9.6 157.605 9.456C157.909 9.312 158.109 9.056 158.205 8.688H159.261C159.181 9.12 159.009 9.476 158.745 9.756C158.489 10.036 158.173 10.244 157.797 10.38C157.429 10.508 157.037 10.572 156.621 10.572ZM163.338 13.332C162.85 13.332 162.378 13.264 161.922 13.128C161.474 12.992 161.07 12.756 160.71 12.42L161.154 11.616C161.466 11.864 161.798 12.06 162.15 12.204C162.51 12.348 162.886 12.42 163.278 12.42C163.934 12.42 164.402 12.228 164.682 11.844C164.97 11.468 165.114 10.988 165.114 10.404V9.648C164.97 9.864 164.786 10.044 164.562 10.188C164.346 10.324 164.106 10.428 163.842 10.5C163.578 10.564 163.306 10.596 163.026 10.596C162.402 10.596 161.91 10.472 161.55 10.224C161.19 9.976 160.934 9.632 160.782 9.192C160.63 8.752 160.554 8.244 160.554 7.668V4.176H161.574V7.38C161.574 7.668 161.59 7.952 161.622 8.232C161.662 8.504 161.738 8.752 161.85 8.976C161.962 9.192 162.126 9.368 162.342 9.504C162.558 9.632 162.846 9.696 163.206 9.696C163.662 9.696 164.026 9.584 164.298 9.36C164.578 9.136 164.778 8.836 164.898 8.46C165.026 8.084 165.09 7.668 165.09 7.212V4.176H166.11V10.5C166.11 10.956 166.05 11.36 165.93 11.712C165.81 12.064 165.63 12.36 165.39 12.6C165.15 12.84 164.858 13.02 164.514 13.14C164.178 13.268 163.786 13.332 163.338 13.332Z" fill="#00040D"/>
</svg>
