<svg width="118" height="40" viewBox="0 0 118 40" fill="none" xmlns="http://www.w3.org/2000/svg">
<path d="M18.6719 2.81639C16.1719 2.99608 13.5938 3.8203 11.3867 5.1367C9.23047 6.42967 7.29297 8.28514 5.93359 10.3711C5.46094 11.0898 4.78906 12.3945 4.47266 13.2031C4.09375 14.164 3.75781 15.3515 3.55859 16.4336C3.19531 18.3867 3.19531 20.7265 3.55859 22.6758C4.17969 26.0156 5.78516 29.0312 8.26172 31.5039C9.38672 32.6289 10.4531 33.4453 11.8164 34.2265C13.9219 35.4336 16.2188 36.125 18.8086 36.332C19.5156 36.3867 21.1758 36.3555 21.8555 36.2734C23.8164 36.0351 25.4297 35.5781 27.125 34.789C28.2891 34.2461 29.7734 33.2578 30.9023 32.2812C31.5039 31.7617 32.5313 30.6836 33.0625 30.0156C33.8477 29.0312 34.4063 28.168 34.9414 27.1055C35.9414 25.125 36.5391 22.9961 36.6836 20.8828C36.7461 19.918 36.7109 18.2187 36.6055 17.4375C36.2383 14.7226 35.3477 12.3008 33.9336 10.1758C32.7305 8.36717 31.0469 6.71483 29.168 5.49217C26.332 3.64842 23.25 2.75389 19.8047 2.78123C19.4063 2.78123 18.8984 2.79686 18.6719 2.81639ZM19.7266 6.56248V9.5703H17.4805C16.0938 9.5703 15.2344 9.55467 15.2344 9.53123C15.2344 9.47264 15.7383 9.0703 16.0234 8.90233C16.1641 8.8203 16.3867 8.72655 16.5117 8.6992C16.8164 8.62498 16.9219 8.56639 17.2461 8.27733C17.5664 7.99608 17.7031 7.80467 17.7969 7.52733C17.8906 7.23436 17.9727 7.14061 18.2773 6.95701C18.4766 6.83983 18.5586 6.76561 18.5898 6.67576C18.6289 6.56639 18.6211 6.54686 18.5039 6.44139C18.3594 6.30858 17.8164 5.96873 17.5898 5.87108C17.375 5.78123 16.6797 5.78123 16.25 5.87889C15.9219 5.95311 15.2305 5.98436 15.1719 5.92967C15.1016 5.85936 16.4375 4.39452 16.9648 3.96873C17.1289 3.83592 17.1953 3.80858 17.5508 3.74608C17.9258 3.67967 18.707 3.60545 19.3164 3.58202C19.4688 3.5742 19.6211 3.56639 19.6602 3.56248C19.7227 3.55467 19.7266 3.72264 19.7266 6.56248ZM22.1289 3.71092C22.8398 3.81248 22.8242 3.80467 23.5742 4.55076C24.332 5.30467 24.7969 5.86326 25.3477 6.68748C25.6016 7.06639 26.2109 8.06639 26.2109 8.10155C26.2109 8.10936 26.1289 8.1367 26.0273 8.16014C25.7969 8.21092 23.5234 8.21092 23.4297 8.16014C23.3359 8.10936 23.3398 8.0703 23.457 7.89842C23.5117 7.8203 23.5547 7.70701 23.5547 7.64842C23.5547 7.53905 23.4023 7.33201 23.2695 7.2578C23.1953 7.21873 22.793 7.18358 22.4102 7.17967C22.0625 7.17967 21.6445 7.51561 21.2969 8.0703C21.2031 8.21873 21.0039 8.47264 20.8516 8.6328C20.6953 8.79295 20.5039 9.03123 20.4219 9.15623L20.2734 9.3867V6.48436V3.58202L20.9102 3.60545C21.2578 3.61717 21.8086 3.66405 22.1289 3.71092ZM16.0156 4.0078C16.0156 4.01952 15.8438 4.21873 15.6328 4.4453C15.2695 4.83983 14.6563 5.58592 14.5781 5.72655C14.5469 5.78123 14.4727 5.78905 14.0547 5.78514C13.4609 5.77733 13.3047 5.80858 12.7734 6.05467C12.4102 6.22655 12.3242 6.24998 12.1016 6.24998C11.7813 6.24998 11.5313 6.37108 11.0352 6.7617C10.4883 7.19139 10.3906 7.24217 10.1367 7.20701C10.0195 7.1953 9.91406 7.16795 9.90234 7.15233C9.87891 7.11326 10.7305 6.48045 11.3086 6.10545C12.5352 5.31639 13.7539 4.73827 15.293 4.21483C16.0039 3.97655 16.0156 3.97264 16.0156 4.0078ZM24.5703 4.19139C25.6914 4.54686 27.2227 5.23436 28.2031 5.82811C29.4219 6.56248 31.0234 7.81248 30.7461 7.81248C30.6328 7.81248 29.9258 7.60545 29.7031 7.5078C29.2031 7.28514 28.832 7.21483 28.3242 7.23826C27.9883 7.25389 27.8164 7.27733 27.6641 7.33983C27.3945 7.4492 27.0039 7.64451 26.8672 7.73826C26.8125 7.78123 26.7461 7.81248 26.7227 7.81248C26.7031 7.81248 26.6211 7.68748 26.5469 7.53905C26.1055 6.66014 25.1133 5.30076 24.2773 4.42186C23.8008 3.92186 23.7773 3.93748 24.5703 4.19139ZM12.5586 7.14842C12.7344 7.23826 12.8438 7.26561 13.0117 7.26561C13.2734 7.26561 13.4766 7.32811 13.4766 7.41014C13.4766 7.44139 13.4453 7.51561 13.4023 7.5703C13.3086 7.71092 12.8828 8.66795 12.7148 9.12108C12.6914 9.18748 12.6797 9.17967 12.6328 9.05076C12.6055 8.96873 12.5352 8.84764 12.4844 8.78514C12.4297 8.71873 12.3672 8.59373 12.3438 8.50389C12.2578 8.17967 12.2461 8.15233 12.1484 8.07811C12.082 8.03123 11.9531 7.99608 11.7656 7.98045C11.6094 7.96873 11.4727 7.94139 11.4609 7.92576C11.4492 7.90623 11.4805 7.86326 11.5273 7.8242C11.7891 7.61326 11.9688 7.42967 12.0352 7.30076C12.1172 7.1328 12.2109 7.03123 12.2773 7.03123C12.3047 7.03123 12.4297 7.08592 12.5586 7.14842ZM9.66016 7.81639C9.82813 7.86326 9.84375 7.93358 9.71094 8.06639C9.52344 8.25389 8.92969 8.33201 8.87891 8.17576C8.85547 8.11326 9.32422 7.77342 9.42969 7.77342C9.47266 7.77342 9.57813 7.79295 9.66016 7.81639ZM10.9375 7.83201C11.0391 7.95311 10.9492 8.07811 10.668 8.21873C10.5234 8.29295 10.3477 8.40233 10.2813 8.45701C10.1367 8.57811 10.1328 8.5742 10.1016 8.1953C10.0742 7.89842 10.0742 7.89451 10.3906 7.82811C10.6914 7.7617 10.8789 7.7617 10.9375 7.83201ZM13.8047 8.35545C13.8164 8.37498 13.793 8.59764 13.75 8.85155C13.707 9.10936 13.6719 9.36326 13.6719 9.41795C13.6719 9.54295 13.6133 9.5703 13.3555 9.5703C13.1992 9.5703 13.1641 9.55858 13.1641 9.49998C13.1641 9.41795 13.7109 8.3203 13.7539 8.3203C13.7695 8.3203 13.793 8.33592 13.8047 8.35545ZM22.5313 8.89061C22.5391 8.93748 22.5195 8.99998 22.4922 9.02733C22.4648 9.05858 22.375 9.16405 22.293 9.26951C22.125 9.47264 21.9531 9.58201 21.8203 9.56248C21.7422 9.55076 21.7344 9.53905 21.7656 9.42576C21.8008 9.28905 22.1563 8.87889 22.2813 8.8242C22.4141 8.77342 22.5195 8.80076 22.5313 8.89061ZM11.4453 9.08201C11.4453 9.1953 11.4102 9.25389 11.2344 9.42967C11.0977 9.56248 11.0156 9.67967 11.0078 9.75389C10.9688 10.043 11.3125 10.2851 11.7773 10.289C11.9297 10.293 12.0977 10.2812 12.1602 10.2617C12.2969 10.2226 12.2969 10.2656 12.1367 10.5859C12.0234 10.8164 11.9961 10.8437 11.8711 10.8633C11.7969 10.875 11.6914 10.914 11.6406 10.9492C11.5039 11.0469 11.4531 11.0312 11.4258 10.8867C11.3789 10.664 11.2461 10.5156 11.043 10.4453C10.5742 10.289 10.2617 10.5547 10.0977 11.25C10.0586 11.4101 9.97656 11.6445 9.91016 11.7695C9.78906 12 9.53516 12.2656 9.4375 12.2656C9.40625 12.2656 9.34375 12.1914 9.30078 12.0976C9.25391 12.0039 9.12109 11.8437 9 11.7383C8.73438 11.5117 8.55469 11.2422 8.55469 11.0781C8.55859 10.6289 9.125 10.1133 10.1211 9.65623C10.3359 9.55467 10.543 9.42186 10.707 9.27733C10.9844 9.02733 11.1289 8.9492 11.3203 8.9453C11.4375 8.9453 11.4453 8.95311 11.4453 9.08201ZM22.1836 10.0937C22.3047 10.125 22.5703 10.164 22.7734 10.1758C22.9766 10.1914 23.1523 10.2109 23.1641 10.2187C23.2109 10.2695 23.0195 10.3476 22.7852 10.375C22.4258 10.4101 22.3359 10.4961 22.3203 10.8086C22.3086 11.1055 22.2148 11.3086 22.0352 11.4258C21.918 11.5 21.8242 11.5195 21.457 11.5351C20.9648 11.5586 20.9609 11.5586 20.8281 11.2461C20.7852 11.1445 20.7305 11.0508 20.707 11.0351C20.582 10.9609 20.4297 11.1406 20.4297 11.3672C20.4297 11.4297 20.3984 11.5078 20.3633 11.5469C20.2969 11.6133 20.293 11.5859 20.2813 10.9961C20.2773 10.6562 20.2773 10.3711 20.2891 10.3633C20.2969 10.3515 20.3789 10.3359 20.4688 10.3242C20.6797 10.293 20.7891 10.3984 20.8984 10.7265C21.0313 11.125 21.1875 11.2422 21.3828 11.0898C21.5625 10.9492 21.6953 10.6406 21.6992 10.3515C21.7031 10.2109 21.707 10.0859 21.7109 10.0664C21.7227 10.0234 21.9414 10.0351 22.1836 10.0937ZM13.7617 10.2148C13.918 10.539 14.25 10.5586 14.5703 10.2578L14.7617 10.0781H17.2461H19.7266V11.1367C19.7266 12.3711 19.7305 12.3594 19.3711 12.5976C19.043 12.8164 18.7109 13.168 18.7109 13.3008C18.7109 13.3633 18.7656 13.4687 18.8477 13.5664C18.9883 13.7265 19.0156 13.8515 18.9453 13.9883C18.8711 14.1211 18.6953 14.1797 18.3555 14.1797C17.9453 14.1797 17.8516 14.2461 17.8516 14.539C17.8516 14.6445 17.8125 14.8594 17.7656 15.0234L17.6797 15.3164L17.7539 15.457C17.8633 15.6562 18.0664 15.75 18.3789 15.75C18.7578 15.75 18.8594 15.6719 19.1016 15.1797C19.2383 14.8945 19.3477 14.7265 19.4727 14.6133C19.5664 14.5273 19.6641 14.4531 19.6875 14.4531C19.7109 14.4531 19.7266 14.6562 19.7266 15.0156V15.5742L19.5508 15.6015C19.4375 15.6133 19.3164 15.668 19.2227 15.7461C19.1016 15.8398 19.0039 15.875 18.7266 15.9258C18.0938 16.0312 17.875 16.2187 17.6133 16.8633C17.4922 17.164 17.4063 17.3086 17.207 17.539C16.793 18.0195 16.6406 18.3906 16.6406 18.9297C16.6406 19.0781 16.625 19.1367 16.582 19.1562C16.4844 19.1914 11.3516 19.1797 11.293 19.1445C11.1758 19.0703 11.3203 16.8008 11.5469 15.1758C11.6445 14.457 11.8047 13.6719 11.8594 13.6172C11.8867 13.5859 11.9766 13.5508 12.0586 13.539C12.2891 13.5 12.4844 13.3984 12.543 13.2969C12.6133 13.164 12.4961 12.4414 12.3594 12.1601L12.2617 11.957L12.5625 11.0195L12.8672 10.0781H13.2813H13.6953L13.7617 10.2148ZM11.2344 13.914C11.1445 14.3281 10.9883 15.2851 10.9023 15.9961C10.8359 16.5117 10.7461 17.707 10.7188 18.4375C10.7031 18.875 10.6797 19.1328 10.6484 19.1484C10.5938 19.1836 7.48828 19.1914 7.16016 19.1562L6.92188 19.1289L6.97656 19C7.05859 18.8008 7.04688 18.5273 6.95703 18.4765C6.83594 18.414 6.71094 18.4883 6.46094 18.7695C6.16016 19.1094 6.00781 19.1484 5.74219 18.9648C5.66406 18.9101 5.57813 18.8203 5.55078 18.7656C5.47266 18.5898 5.5 18.2461 5.62891 17.8633C5.82813 17.2656 6.05469 17.0781 6.73047 16.9531C7.11328 16.8828 7.33594 16.918 7.46875 17.0664C7.52734 17.1289 7.59375 17.2578 7.61719 17.3515C7.72656 17.75 7.75 17.793 7.87109 17.8047C8.08594 17.8203 8.10156 17.7812 8.12891 17.2383C8.14063 16.9648 8.17188 16.6914 8.19531 16.6328C8.21875 16.5703 8.36719 16.3867 8.52344 16.2187C8.67969 16.0508 9.02734 15.6445 9.29688 15.3125C9.5625 14.9805 9.82422 14.6719 9.87891 14.6289C9.92969 14.5859 10.0977 14.4883 10.25 14.414C10.543 14.2695 10.5859 14.2187 10.7227 13.8242C10.7773 13.6601 10.8086 13.6289 11.0469 13.5039C11.2422 13.3984 11.3125 13.3789 11.3203 13.418C11.3281 13.4492 11.2891 13.6719 11.2344 13.914ZM24.043 13.5547C24.1836 13.6484 24.3164 13.6523 24.5078 13.5742C24.6328 13.5234 24.6641 13.5195 24.7578 13.5703C24.9063 13.6484 25.1758 13.9609 25.3086 14.2109C25.3477 14.2851 25.3477 14.3203 25.293 14.4023C25.2305 14.4961 25.2148 14.5 24.9844 14.4765C24.3984 14.4062 24.3008 14.4062 24.0898 14.4687C23.6328 14.6015 23.4375 14.5195 23.4375 14.1992C23.4375 14.0078 23.5938 13.6055 23.6992 13.5234C23.793 13.457 23.9063 13.4648 24.043 13.5547ZM21.3047 13.75C21.4258 13.793 21.9453 14.2656 22.0469 14.4219C22.0859 14.4844 22.1875 14.7265 22.2695 14.9648C22.5 15.6133 22.5469 15.6836 22.7266 15.6367C22.8711 15.6015 22.8984 15.4726 22.8359 15.1953C22.7578 14.8633 22.7578 14.8203 22.8516 14.7265C22.9531 14.625 23.1055 14.6289 23.207 14.7305C23.2813 14.8047 23.2891 14.8437 23.2656 15.0547C23.2461 15.2539 23.2539 15.3164 23.3203 15.4219C23.4336 15.6094 23.6016 15.664 24.0547 15.664C24.418 15.664 24.4453 15.668 24.5352 15.7656C24.6719 15.9101 24.668 16.2305 24.5234 16.5351C24.3711 16.8555 24.3828 16.8555 23.5156 16.7148C23.375 16.6953 23.0977 16.6211 22.8984 16.5547C22.4414 16.3984 22.3516 16.418 22.2656 16.6914C22.207 16.8711 22.2031 16.875 22.043 16.875C21.918 16.875 21.7578 16.8125 21.3711 16.6172L20.8594 16.3555L20.8555 16.1562C20.8516 16.0469 20.8516 15.9414 20.8555 15.9219C20.8711 15.8476 20.8125 15.6601 20.7539 15.6055C20.7188 15.5664 20.6211 15.5469 20.4844 15.5469H20.2734V14.8437V14.1406L20.3711 14.1172C20.4844 14.0898 20.5742 14.1406 20.8047 14.3594C20.8906 14.4453 21.0625 14.582 21.1836 14.668C21.5117 14.8984 21.5156 14.9844 21.2266 15.1914C20.9219 15.4101 20.9141 15.5859 21.207 15.5859C21.3516 15.5859 21.4844 15.5156 21.6133 15.3711C21.7227 15.2461 21.875 14.914 21.875 14.789C21.875 14.668 21.8125 14.5976 21.2383 14.0898C21.0742 13.9414 20.9375 13.8086 20.9375 13.789C20.9375 13.7695 20.9844 13.7461 21.0469 13.7383C21.1055 13.7305 21.1641 13.7187 21.1797 13.7148C21.1953 13.7148 21.25 13.7265 21.3047 13.75ZM35.3438 15.0664C35.6914 16.3086 35.8789 17.4062 35.957 18.7187L35.9844 19.1406H35.1992C34.4297 19.1406 34.4141 19.1406 34.3594 19.0508C34.293 18.9492 34.2734 18.8008 34.3086 18.6914C34.3242 18.6484 34.4727 18.5273 34.6367 18.418C35.2656 18.0078 35.5156 17.6836 35.5664 17.207C35.6133 16.7148 35.4492 16.0351 35.1133 15.3398C34.9883 15.082 34.9609 14.9922 34.9805 14.8828C35.0156 14.7031 35.1055 14.4922 35.1484 14.4922C35.168 14.4922 35.2539 14.75 35.3438 15.0664ZM26.8008 16.9336C26.8633 16.9687 26.9922 17.1015 27.0859 17.2305C27.3047 17.5312 27.3516 17.5625 27.6523 17.6172C27.7891 17.6406 27.9883 17.6953 28.0938 17.7383C28.2031 17.7812 28.3906 17.8242 28.5156 17.8398C28.7383 17.8633 28.7422 17.8633 28.7656 18.0039C28.7773 18.082 28.7891 18.3672 28.7891 18.6406V19.1406L28.6836 19.1445C28.4648 19.1562 27.957 19.1445 27.9414 19.125C27.9336 19.1172 27.9766 18.9844 28.043 18.8359C28.1797 18.5273 28.1875 18.4531 28.1094 18.2656C28 18.0078 27.6836 17.8711 27.4609 17.9883C27.3867 18.0273 27.2578 18.0547 27.1719 18.0547C26.9922 18.0508 26.9648 18.0234 26.7188 17.5898C26.543 17.2851 26.4805 17.0312 26.5625 16.9336C26.625 16.8594 26.6563 16.8594 26.8008 16.9336ZM24.7305 17.543C24.8125 17.625 24.9297 17.8633 25.1367 18.3711C25.1953 18.5156 25.3125 18.7422 25.3945 18.8711C25.4766 18.9961 25.5469 19.1133 25.5469 19.1289C25.5508 19.1719 25.4258 19.1836 25.2109 19.1601C25.0156 19.1367 25.0078 19.1289 24.9297 18.9531C24.8867 18.8515 24.7695 18.5859 24.668 18.3594C24.3477 17.6367 24.3164 17.539 24.3789 17.4961C24.4766 17.4375 24.6445 17.457 24.7305 17.543ZM4.35156 18.0664C4.38281 18.2148 4.42188 18.4258 4.43359 18.5351C4.44922 18.6406 4.49219 18.8164 4.53516 18.9219C4.57422 19.0312 4.60156 19.1211 4.59766 19.125C4.57813 19.1445 4.0625 19.1523 4.04297 19.1328C4.00781 19.0976 4.10156 17.6836 4.14453 17.5781C4.1875 17.4805 4.1875 17.4805 4.24219 17.6367C4.26953 17.7226 4.32031 17.914 4.35156 18.0664ZM29.5938 18.3789C29.7305 18.5508 29.7695 18.5742 29.9141 18.5859C30.0898 18.5976 30.0977 18.6055 30.1367 18.9336C30.1602 19.1172 30.1563 19.1406 30.0898 19.1406C30.0508 19.1406 29.8867 19.1523 29.7266 19.1601C29.2695 19.1875 29.2969 19.2265 29.3008 18.5625C29.3008 18.0117 29.3047 17.9922 29.3672 18.0859C29.4023 18.1406 29.5039 18.2695 29.5938 18.3789ZM32.5547 18.457C32.7227 18.6484 32.9219 19.0976 32.8555 19.1406C32.8125 19.164 31.5234 19.168 31.4492 19.1445C31.4375 19.1445 31.4844 19.082 31.5469 19.0117C31.6133 18.9453 31.7266 18.8086 31.7969 18.7109C32.0508 18.3711 32.1133 18.3203 32.2773 18.3203C32.4023 18.3203 32.4531 18.3437 32.5547 18.457ZM5.83984 19.7461C6.26172 19.8672 6.63672 20.1836 6.85547 20.6094C7.03516 20.9531 7.21484 21.1133 7.47266 21.1523C7.77734 21.1992 7.87891 21.2461 7.94922 21.3828C8.05469 21.5742 8.01563 21.8594 7.84766 22.1211C7.39844 22.8281 7.39063 23.2265 7.80859 24.082C7.91797 24.3008 8.08203 24.6406 8.17578 24.8437C8.35156 25.2187 8.41797 25.3047 8.9375 25.789C9.26172 26.0937 9.28516 26.1797 9.3125 27.3515L9.33594 28.2812H7.99219H6.64844L6.36328 27.8203C5.08984 25.7578 4.23047 23.1211 4.08594 20.8203C4.02344 19.8789 4.01953 19.7265 4.03516 19.6992C4.07031 19.6445 5.625 19.6875 5.83984 19.7461ZM16.6016 20.082C16.625 20.539 16.6367 20.5703 16.9531 20.957C17.0781 21.1055 17.2344 21.3398 17.3008 21.4726C17.4531 21.7773 17.6523 21.9805 17.8281 22.0156C17.9141 22.0312 18.0938 22.0078 18.3125 21.957C18.5039 21.9101 18.707 21.875 18.7617 21.875C18.8164 21.875 19.0195 21.8203 19.2148 21.7539C19.793 21.5586 19.7266 21.1523 19.7266 24.9844V28.2812L16.2813 28.2734L12.8398 28.2617L12.6914 27.8281C12.5703 27.4609 12.5547 27.375 12.5938 27.3008C12.6172 27.25 12.7852 27.1211 12.9609 27.0117C13.4844 26.6914 13.5938 26.4492 13.668 25.4453C13.7031 24.9375 13.7383 24.8437 13.9844 24.5117C14.1992 24.2226 14.2578 24.0859 14.2578 23.8867C14.2578 23.6797 14.1953 23.539 14.0352 23.3945C13.8516 23.2265 13.668 23.1328 12.9336 22.8359C12.5469 22.6797 12.1875 22.5195 12.1289 22.4844C12.0703 22.4453 11.9609 22.2734 11.8516 22.0469C11.7539 21.8398 11.6016 21.5937 11.5195 21.5039C11.332 21.3008 11.3047 21.168 11.2656 20.2656L11.2383 19.6875L13.8711 19.6797C15.3203 19.6719 16.5234 19.668 16.543 19.6719C16.5664 19.6719 16.5898 19.8515 16.6016 20.082ZM25.7695 19.7344C25.793 19.7539 25.8477 19.8594 25.8867 19.9687C26.0078 20.3086 26.2266 20.3398 26.6523 20.0742C26.7656 20.0039 26.9492 19.8867 27.0664 19.8164L27.2813 19.6875H28.0391H28.8008L28.7734 20.2812C28.6523 22.8906 28.0664 25.9492 27.2773 28.0664L27.2031 28.2617L25.5742 28.2734C24.2852 28.2812 23.9453 28.2734 23.9453 28.2344C23.9453 28.207 24.043 28.0078 24.1641 27.793C24.3711 27.4219 24.3867 27.3828 24.4219 27.0117C24.4648 26.5508 24.5195 26.4453 24.8242 26.2109C25.2852 25.8555 25.4063 25.582 25.3477 25.0469C25.3281 24.8711 25.2852 24.6211 25.2539 24.4844C25.2227 24.3476 25.1953 24.125 25.1953 23.9844C25.1953 23.6445 25.3125 23.4414 25.9297 22.7226C26.4922 22.0703 26.6758 21.8008 26.8359 21.4219C26.9961 21.0312 27.0195 20.8633 26.9219 20.7422L26.8438 20.6484L26.5039 20.7109C26.0195 20.8047 25.9883 20.7851 25.5234 20.0976L25.2617 19.707L25.4141 19.6836C25.5781 19.6601 25.6953 19.6758 25.7695 19.7344ZM10.7188 19.8515C10.7461 20.043 10.7695 20.8984 10.75 20.8984C10.7422 20.8984 10.6328 20.8203 10.5078 20.7226C10.25 20.5234 10.1758 20.4883 9.90234 20.4531C9.79688 20.4375 9.58203 20.3828 9.42578 20.3281C9.125 20.2265 8.72656 20.2031 8.58203 20.2773C8.53516 20.3047 8.375 20.4375 8.23047 20.5781C7.98047 20.8164 7.95703 20.8281 7.82031 20.8086C7.53125 20.7578 7.34375 20.5156 7.34375 20.1836C7.34375 20.082 7.31641 19.9336 7.28516 19.8555C7.25391 19.7812 7.22656 19.7109 7.22656 19.7031C7.22656 19.6953 8.00781 19.6875 8.96094 19.6875H10.6992L10.7188 19.8515ZM30.293 19.832C30.3633 20.2695 30.5313 20.7109 30.7266 20.9648C30.8516 21.1328 31.0195 21.1406 31.1211 20.9883C31.1797 20.9023 31.1875 20.8086 31.1797 20.4336C31.1719 20.1875 31.1797 19.918 31.1914 19.8359L31.2188 19.6875L32.2773 19.6953L33.3398 19.707L33.3906 19.8203C33.4219 19.8789 33.4609 20.1601 33.4766 20.4453C33.5234 21.1523 33.6914 21.6719 33.9883 22.0078C34.125 22.168 34.2383 22.2148 34.3164 22.1484C34.4414 22.043 34.332 21.6992 34.0508 21.3047C33.8906 21.082 33.8086 20.8945 33.7695 20.6719C33.6992 20.2422 33.8828 20.1328 34.1055 20.4765C34.1797 20.5898 34.2852 20.707 34.3438 20.7383C34.4375 20.793 34.4531 20.793 34.5352 20.7226C34.75 20.5312 34.8789 19.9805 34.7656 19.7617C34.7266 19.6914 34.7422 19.6875 35.3555 19.6875H35.9883L35.9609 20.1836C35.9219 20.8711 35.8711 21.2109 35.7852 21.3281C35.7461 21.3828 35.5664 21.5547 35.3867 21.7148C34.8789 22.164 34.7539 22.3984 34.8438 22.7305C34.9023 22.957 35.0117 23.0664 35.2734 23.1601C35.4609 23.2305 35.5078 23.2617 35.5078 23.332C35.5078 23.4765 35.4297 23.7148 35.375 23.7344C35.3477 23.7461 35.1797 23.7187 35.0039 23.6719C34.8242 23.6289 34.6484 23.6015 34.6094 23.6133C34.5117 23.6445 34.4453 23.8398 34.5039 23.9219C34.5586 23.9922 34.8477 24.0937 35.0938 24.125C35.207 24.1406 35.2734 24.1719 35.2734 24.2031C35.2734 24.2969 34.9453 25.2305 34.7461 25.7031C34.4883 26.3125 33.9805 27.3086 33.6484 27.8398L33.3789 28.2773L30.5781 28.2812C29.0352 28.2812 27.7734 28.2656 27.7734 28.25C27.7734 28.2305 27.8672 27.9297 27.9844 27.5742C28.707 25.3867 29.168 22.7969 29.2813 20.2812L29.3086 19.6875H29.7891H30.2695L30.293 19.832ZM20.4297 21.9726C20.5977 22.0586 20.6172 22.125 20.6406 22.6211C20.668 23.1172 20.6797 23.1719 20.9258 23.7461C21.2422 24.4961 21.2773 24.8164 21.0938 25.4101C21.0313 25.6211 20.9766 25.8672 20.9766 25.9609C20.9766 26.0586 21.043 26.3125 21.1328 26.5703C21.2188 26.8125 21.3281 27.168 21.3711 27.3594C21.418 27.5508 21.5039 27.8281 21.5664 27.9805C21.6289 28.1289 21.6797 28.2578 21.6797 28.2656C21.6797 28.2734 21.3633 28.2812 20.9766 28.2812H20.2734V25.0976C20.2734 23.3476 20.2813 21.914 20.293 21.914C20.3086 21.914 20.3672 21.9414 20.4297 21.9726ZM9.38672 29.168C9.44531 30.1094 9.77734 31.6719 9.96484 31.8984C9.98828 31.9258 10 31.9805 9.99219 32.0195C9.97656 32.0976 9.66406 31.8203 8.88672 31.0351C8.29297 30.4375 6.99219 28.9101 6.99219 28.8125C6.99219 28.8008 7.52734 28.789 8.17578 28.789H9.36328L9.38672 29.168ZM12.5117 28.9258C12.5938 29.1797 13.0313 30.2031 13.2813 30.7344C14.0273 32.2851 15.082 33.8633 16.0625 34.8945C16.25 35.0859 16.3281 35.1953 16.2852 35.1953C16.2031 35.1953 15.0352 34.8437 14.625 34.6953C13.8125 34.3984 12.8164 33.918 11.9219 33.3906C11.457 33.1133 11.3281 33.0234 11.3477 32.9726C11.4336 32.7539 11.418 32.7148 11.1563 32.4219C10.8555 32.0859 10.8164 31.9648 10.9141 31.6601C10.9961 31.3984 10.9922 31.3047 10.8984 31.1836C10.832 31.0976 10.8242 31.0351 10.8359 30.6914C10.8438 30.4726 10.8594 30.2656 10.875 30.2344C10.8906 30.2031 10.9922 30.1055 11.1016 30.0195C11.3516 29.8242 11.4453 29.6719 11.4453 29.4687C11.4453 29.3281 11.4648 29.293 11.6055 29.1836C11.6914 29.1133 11.793 28.9961 11.8281 28.9219L11.8906 28.7851L12.1836 28.7969C12.4688 28.8086 12.4766 28.8125 12.5117 28.9258ZM19.7266 32.2109V35.6367L19.2695 35.6094C18.7891 35.582 17.7305 35.457 17.4609 35.3945C17.3398 35.3672 17.2266 35.2851 16.9648 35.0312C15.4297 33.539 14.1016 31.4765 13.1836 29.164C13.1094 28.9687 13.0469 28.8086 13.0469 28.8008C13.0469 28.793 14.5508 28.789 16.3867 28.789H19.7266V32.2109ZM21.7813 28.9726C21.8477 29.4609 21.9805 29.5351 22.5391 29.3984C23.043 29.2734 23.1367 29.2265 23.4336 28.9922L23.6836 28.789H25.3359H26.9922L26.9063 28.9922C26.8633 29.1055 26.793 29.2773 26.7578 29.375C26.2305 30.7109 24.9609 32.8711 24.1133 33.8711C23.5508 34.539 23.2656 34.8437 22.9805 35.0976C22.6992 35.3437 22.6289 35.3867 22.4336 35.4258C22.0938 35.4883 21.25 35.582 20.7344 35.6094L20.2734 35.6367L20.2656 32.2305C20.2578 30.3555 20.2617 28.8125 20.2695 28.8047C20.2773 28.7969 20.6172 28.789 21.0195 28.789H21.7539L21.7813 28.9726ZM32.9258 28.914C32.5117 29.5078 31.6289 30.5156 30.9766 31.1445C29.2305 32.8281 27.4258 33.9609 25.2344 34.7461C24.7539 34.918 23.6641 35.2383 23.6367 35.2109C23.6289 35.2031 23.7695 35.043 23.9531 34.8515C24.9219 33.8672 25.8281 32.5351 26.6563 30.8711C26.9766 30.2265 27.2773 29.5469 27.4414 29.0898L27.5508 28.789H30.2813H33.0117L32.9258 28.914Z" fill="#3474F6"/>
<path d="M18.4532 10.8005C18.3595 10.9412 18.4063 11.199 18.5821 11.5505C18.7423 11.8669 18.7384 11.8669 18.5665 12.3162C18.4688 12.5701 18.5157 12.6404 18.7735 12.6287C18.879 12.6287 19.047 12.5857 19.1485 12.5427C19.2891 12.4763 19.3399 12.4294 19.3751 12.324C19.4337 12.1443 19.4024 12.0115 19.2149 11.6638C19.1329 11.5037 19.0157 11.2537 18.961 11.1091C18.9063 10.9607 18.8321 10.8083 18.8009 10.7693C18.7071 10.6677 18.5313 10.6833 18.4532 10.8005Z" fill="#3474F6"/>
<path d="M18.0156 11.5665C17.8711 11.715 17.7617 11.9767 17.7813 12.129C17.7891 12.1915 17.8359 12.2736 17.8984 12.3165C17.9922 12.3869 18.0234 12.3908 18.1602 12.3517C18.332 12.297 18.4375 12.1642 18.4375 12.0001C18.4375 11.879 18.2461 11.4767 18.1797 11.4572C18.1563 11.4494 18.082 11.5001 18.0156 11.5665Z" fill="#3474F6"/>
<path d="M26.4414 25.3983C26.3242 25.535 26.1718 25.6951 26.0976 25.7616C25.914 25.9217 25.8203 26.1444 25.8203 26.4256C25.8203 26.5545 25.7929 26.7889 25.7617 26.9451C25.6992 27.2342 25.7109 27.3748 25.8047 27.5272C25.9101 27.6991 26.1875 27.617 26.3125 27.3787C26.4218 27.1678 26.8359 25.8631 26.8593 25.6522C26.8867 25.4256 26.8047 25.1561 26.707 25.1561C26.6757 25.1561 26.5586 25.2655 26.4414 25.3983Z" fill="#3474F6"/>
<path d="M33.0665 21.5623C33.0275 21.6248 33.0822 21.7537 33.2658 22.0545C33.3595 22.2069 33.5197 22.5116 33.6173 22.7264C33.8595 23.2733 33.9728 23.4608 34.1017 23.5545C34.2423 23.6561 34.3165 23.6248 34.3908 23.4334C34.5158 23.117 34.4337 22.8436 34.1017 22.4686C33.9923 22.3475 33.8517 22.1561 33.7931 22.0506C33.6408 21.7811 33.3556 21.5233 33.2072 21.5233C33.1447 21.5233 33.0783 21.5428 33.0665 21.5623Z" fill="#3474F6"/>
<path d="M47.5943 33V6.51579H50.5075V30.2381H63.9767V33H47.5943ZM73.0298 33L63.0414 6.51579H66.1817L75.035 30.2381H75.3377L84.191 6.51579H87.2934L77.3051 33H73.0298ZM102.65 30.5029C109.082 30.5029 112.45 25.5088 112.45 19.7579C112.45 14.0449 109.082 9.05071 102.65 9.05071C96.2185 9.05071 92.8891 14.0449 92.8891 19.7579C92.8891 25.5088 96.2185 30.5029 102.65 30.5029ZM102.65 33.3027C94.6295 33.3027 89.938 27.0978 89.938 19.7579C89.938 12.4558 94.6295 6.25095 102.65 6.25095C110.709 6.25095 115.363 12.4558 115.363 19.7579C115.363 27.0978 110.709 33.3027 102.65 33.3027Z" fill="#3474F6"/>
</svg>
